G75*
G70*
%OFA0B0*%
%FSLAX24Y24*%
%IPPOS*%
%LPD*%
%AMOC8*
5,1,8,0,0,1.08239X$1,22.5*
%
%ADD10C,0.0100*%
%ADD11C,0.0040*%
%ADD12C,0.0080*%
%ADD13C,0.0256*%
%ADD14C,0.0050*%
%ADD15C,0.0000*%
%ADD16C,0.0160*%
%ADD17R,0.0180X0.0300*%
%ADD18R,0.0300X0.0180*%
D10*
X000813Y000736D02*
X000813Y008736D01*
X008813Y008736D01*
X008813Y000736D01*
X000813Y000736D01*
D11*
X002213Y001925D02*
X002347Y001925D01*
X002413Y001992D01*
X002347Y002058D01*
X002213Y002058D01*
X002246Y002146D02*
X002380Y002146D01*
X002413Y002179D01*
X002413Y002246D01*
X002380Y002279D01*
X002380Y002367D02*
X002246Y002367D01*
X002213Y002400D01*
X002213Y002467D01*
X002246Y002500D01*
X002380Y002500D02*
X002413Y002467D01*
X002413Y002400D01*
X002380Y002367D01*
X002246Y002279D02*
X002213Y002246D01*
X002213Y002179D01*
X002246Y002146D01*
X002246Y002925D02*
X002280Y002925D01*
X002313Y002958D01*
X002313Y003025D01*
X002347Y003058D01*
X002380Y003058D01*
X002413Y003025D01*
X002413Y002958D01*
X002380Y002925D01*
X002246Y002925D02*
X002213Y002958D01*
X002213Y003025D01*
X002246Y003058D01*
X002246Y003146D02*
X002380Y003146D01*
X002413Y003179D01*
X002413Y003246D01*
X002380Y003279D01*
X002413Y003367D02*
X002213Y003367D01*
X002246Y003279D02*
X002213Y003246D01*
X002213Y003179D01*
X002246Y003146D01*
X002413Y003367D02*
X002413Y003500D01*
X002380Y003925D02*
X002413Y003958D01*
X002413Y004025D01*
X002380Y004058D01*
X002347Y004058D01*
X002313Y004025D01*
X002313Y003958D01*
X002280Y003925D01*
X002246Y003925D01*
X002213Y003958D01*
X002213Y004025D01*
X002246Y004058D01*
X002213Y004146D02*
X002213Y004246D01*
X002246Y004279D01*
X002380Y004279D01*
X002413Y004246D01*
X002413Y004146D01*
X002213Y004146D01*
X002280Y004367D02*
X002213Y004434D01*
X002280Y004500D01*
X002413Y004500D01*
X002313Y004500D02*
X002313Y004367D01*
X002280Y004367D02*
X002413Y004367D01*
X002413Y004925D02*
X002280Y004925D01*
X002213Y004992D01*
X002280Y005058D01*
X002413Y005058D01*
X002313Y005058D02*
X002313Y004925D01*
X002213Y005146D02*
X002213Y005279D01*
X002213Y005213D02*
X002413Y005213D01*
X002413Y005367D02*
X002213Y005367D01*
X002413Y005500D01*
X002213Y005500D01*
X002213Y005925D02*
X002213Y006025D01*
X002246Y006058D01*
X002313Y006058D01*
X002347Y006025D01*
X002347Y005925D01*
X002413Y005925D02*
X002213Y005925D01*
X002347Y005992D02*
X002413Y006058D01*
X002380Y006146D02*
X002413Y006179D01*
X002413Y006246D01*
X002380Y006279D01*
X002347Y006279D01*
X002313Y006246D01*
X002313Y006179D01*
X002280Y006146D01*
X002246Y006146D01*
X002213Y006179D01*
X002213Y006246D01*
X002246Y006279D01*
X002213Y006367D02*
X002213Y006500D01*
X002213Y006434D02*
X002413Y006434D01*
X002380Y006925D02*
X002246Y006925D01*
X002213Y006958D01*
X002213Y007025D01*
X002246Y007058D01*
X002313Y007058D02*
X002313Y006992D01*
X002313Y007058D02*
X002380Y007058D01*
X002413Y007025D01*
X002413Y006958D01*
X002380Y006925D01*
X002413Y007146D02*
X002213Y007146D01*
X002413Y007279D01*
X002213Y007279D01*
X002213Y007367D02*
X002213Y007467D01*
X002246Y007500D01*
X002380Y007500D01*
X002413Y007467D01*
X002413Y007367D01*
X002213Y007367D01*
X007213Y007327D02*
X007413Y007327D01*
X007213Y007193D01*
X007413Y007193D01*
X007413Y007106D02*
X007413Y007006D01*
X007380Y006972D01*
X007247Y006972D01*
X007213Y007006D01*
X007213Y007106D01*
X007413Y007106D01*
X007380Y007414D02*
X007413Y007448D01*
X007413Y007515D01*
X007380Y007548D01*
X007247Y007548D01*
X007213Y007515D01*
X007213Y007448D01*
X007247Y007414D01*
X007313Y007414D01*
X007313Y007481D01*
X007280Y006548D02*
X007280Y006448D01*
X007313Y006414D01*
X007380Y006414D01*
X007413Y006448D01*
X007413Y006548D01*
X007213Y006548D01*
X007280Y006481D02*
X007213Y006414D01*
X007247Y006327D02*
X007213Y006294D01*
X007213Y006227D01*
X007247Y006193D01*
X007280Y006193D01*
X007313Y006227D01*
X007313Y006294D01*
X007347Y006327D01*
X007380Y006327D01*
X007413Y006294D01*
X007413Y006227D01*
X007380Y006193D01*
X007413Y006106D02*
X007413Y005972D01*
X007413Y006039D02*
X007213Y006039D01*
X007213Y005548D02*
X007347Y005548D01*
X007413Y005481D01*
X007347Y005414D01*
X007213Y005414D01*
X007313Y005414D02*
X007313Y005548D01*
X007413Y005327D02*
X007413Y005193D01*
X007413Y005260D02*
X007213Y005260D01*
X007213Y005106D02*
X007413Y005106D01*
X007213Y004972D01*
X007413Y004972D01*
X007380Y004548D02*
X007347Y004548D01*
X007313Y004515D01*
X007313Y004448D01*
X007280Y004414D01*
X007247Y004414D01*
X007213Y004448D01*
X007213Y004515D01*
X007247Y004548D01*
X007380Y004548D02*
X007413Y004515D01*
X007413Y004448D01*
X007380Y004414D01*
X007413Y004327D02*
X007413Y004227D01*
X007380Y004193D01*
X007247Y004193D01*
X007213Y004227D01*
X007213Y004327D01*
X007413Y004327D01*
X007347Y004106D02*
X007213Y004106D01*
X007313Y004106D02*
X007313Y003972D01*
X007347Y003972D02*
X007213Y003972D01*
X007347Y003972D02*
X007413Y004039D01*
X007347Y004106D01*
X007347Y003548D02*
X007313Y003515D01*
X007313Y003448D01*
X007280Y003414D01*
X007247Y003414D01*
X007213Y003448D01*
X007213Y003515D01*
X007247Y003548D01*
X007347Y003548D02*
X007380Y003548D01*
X007413Y003515D01*
X007413Y003448D01*
X007380Y003414D01*
X007380Y003327D02*
X007247Y003327D01*
X007213Y003294D01*
X007213Y003227D01*
X007247Y003193D01*
X007213Y003106D02*
X007213Y002972D01*
X007213Y003106D02*
X007413Y003106D01*
X007380Y003193D02*
X007413Y003227D01*
X007413Y003294D01*
X007380Y003327D01*
X007413Y002548D02*
X007280Y002548D01*
X007213Y002481D01*
X007280Y002414D01*
X007413Y002414D01*
X007380Y002327D02*
X007247Y002327D01*
X007213Y002294D01*
X007213Y002227D01*
X007247Y002193D01*
X007247Y002106D02*
X007213Y002073D01*
X007213Y002006D01*
X007247Y001972D01*
X007247Y002106D02*
X007380Y002106D01*
X007413Y002073D01*
X007413Y002006D01*
X007380Y001972D01*
X007380Y002193D02*
X007413Y002227D01*
X007413Y002294D01*
X007380Y002327D01*
D12*
X007563Y002486D02*
X007813Y002736D01*
X007563Y002986D01*
X007563Y003486D01*
X007813Y003736D01*
X007563Y003986D01*
X007563Y004486D01*
X007813Y004736D01*
X007563Y004986D01*
X007563Y005486D01*
X007813Y005736D01*
X007563Y005986D01*
X007563Y006486D01*
X007813Y006736D01*
X007563Y006986D01*
X007563Y007486D01*
X007813Y007736D01*
X008313Y007736D01*
X008563Y007486D01*
X008563Y006986D01*
X008313Y006736D01*
X008563Y006486D01*
X008563Y005986D01*
X008313Y005736D01*
X008563Y005486D01*
X008563Y004986D01*
X008313Y004736D01*
X008563Y004486D01*
X008563Y003986D01*
X008313Y003736D01*
X008563Y003486D01*
X008563Y002986D01*
X008313Y002736D01*
X008563Y002486D01*
X008563Y001986D01*
X008313Y001736D01*
X007813Y001736D01*
X007563Y001986D01*
X007563Y002486D01*
X005660Y002038D02*
X005660Y000935D01*
X003967Y000935D01*
X003967Y002038D01*
X005660Y002038D01*
X002063Y001986D02*
X001813Y001736D01*
X001313Y001736D01*
X001063Y001986D01*
X001063Y002486D01*
X001313Y002736D01*
X001063Y002986D01*
X001063Y003486D01*
X001313Y003736D01*
X001063Y003986D01*
X001063Y004486D01*
X001313Y004736D01*
X001063Y004986D01*
X001063Y005486D01*
X001313Y005736D01*
X001063Y005986D01*
X001063Y006486D01*
X001313Y006736D01*
X001063Y006986D01*
X001063Y007486D01*
X001313Y007736D01*
X001813Y007736D01*
X002063Y007486D01*
X002063Y006986D01*
X001813Y006736D01*
X002063Y006486D01*
X002063Y005986D01*
X001813Y005736D01*
X002063Y005486D01*
X002063Y004986D01*
X001813Y004736D01*
X002063Y004486D01*
X002063Y003986D01*
X001813Y003736D01*
X002063Y003486D01*
X002063Y002986D01*
X001813Y002736D01*
X002063Y002486D01*
X002063Y001986D01*
D13*
X005414Y001191D03*
D14*
X004938Y002986D02*
X004688Y003236D01*
X004688Y002986D01*
X004938Y002986D02*
X004938Y003236D01*
X004688Y003236D01*
X004688Y003486D01*
X004688Y003611D02*
X004563Y003736D01*
X004563Y003699D01*
X004563Y003736D02*
X004601Y003736D01*
X004688Y003736D02*
X004688Y003699D01*
X004688Y003736D02*
X004726Y003736D01*
X004688Y003736D02*
X004813Y003611D01*
X004938Y003486D02*
X004938Y003236D01*
X005313Y003236D01*
X004938Y003486D02*
X004688Y003236D01*
X004313Y003236D01*
D15*
X004028Y004736D02*
X004030Y004791D01*
X004036Y004846D01*
X004046Y004901D01*
X004059Y004955D01*
X004076Y005007D01*
X004097Y005059D01*
X004122Y005108D01*
X004150Y005156D01*
X004181Y005202D01*
X004216Y005245D01*
X004253Y005286D01*
X004293Y005324D01*
X004336Y005359D01*
X004381Y005392D01*
X004429Y005420D01*
X004478Y005446D01*
X004529Y005468D01*
X004581Y005486D01*
X004634Y005500D01*
X004689Y005511D01*
X004744Y005518D01*
X004799Y005521D01*
X004855Y005520D01*
X004910Y005515D01*
X004964Y005506D01*
X005018Y005494D01*
X005071Y005477D01*
X005123Y005457D01*
X005173Y005434D01*
X005221Y005406D01*
X005268Y005376D01*
X005312Y005342D01*
X005353Y005306D01*
X005392Y005266D01*
X005428Y005224D01*
X005461Y005179D01*
X005491Y005132D01*
X005517Y005084D01*
X005540Y005033D01*
X005559Y004981D01*
X005574Y004928D01*
X005586Y004874D01*
X005594Y004819D01*
X005598Y004764D01*
X005598Y004708D01*
X005594Y004653D01*
X005586Y004598D01*
X005574Y004544D01*
X005559Y004491D01*
X005540Y004439D01*
X005517Y004388D01*
X005491Y004340D01*
X005461Y004293D01*
X005428Y004248D01*
X005392Y004206D01*
X005353Y004166D01*
X005312Y004130D01*
X005268Y004096D01*
X005221Y004066D01*
X005173Y004038D01*
X005123Y004015D01*
X005071Y003995D01*
X005018Y003978D01*
X004964Y003966D01*
X004910Y003957D01*
X004855Y003952D01*
X004799Y003951D01*
X004744Y003954D01*
X004689Y003961D01*
X004634Y003972D01*
X004581Y003986D01*
X004529Y004004D01*
X004478Y004026D01*
X004429Y004052D01*
X004381Y004080D01*
X004336Y004113D01*
X004293Y004148D01*
X004253Y004186D01*
X004216Y004227D01*
X004181Y004270D01*
X004150Y004316D01*
X004122Y004364D01*
X004097Y004413D01*
X004076Y004465D01*
X004059Y004517D01*
X004046Y004571D01*
X004036Y004626D01*
X004030Y004681D01*
X004028Y004736D01*
X002458Y004736D02*
X002460Y004773D01*
X002466Y004810D01*
X002475Y004846D01*
X002489Y004880D01*
X002506Y004913D01*
X002526Y004945D01*
X002549Y004974D01*
X002575Y005000D01*
X002604Y005023D01*
X002635Y005043D01*
X002669Y005060D01*
X002703Y005074D01*
X002739Y005083D01*
X002776Y005089D01*
X002813Y005091D01*
X002850Y005089D01*
X002887Y005083D01*
X002923Y005074D01*
X002957Y005060D01*
X002990Y005043D01*
X003022Y005023D01*
X003051Y005000D01*
X003077Y004974D01*
X003100Y004945D01*
X003120Y004914D01*
X003137Y004880D01*
X003151Y004846D01*
X003160Y004810D01*
X003166Y004773D01*
X003168Y004736D01*
X003166Y004699D01*
X003160Y004662D01*
X003151Y004626D01*
X003137Y004592D01*
X003120Y004559D01*
X003100Y004527D01*
X003077Y004498D01*
X003051Y004472D01*
X003022Y004449D01*
X002991Y004429D01*
X002957Y004412D01*
X002923Y004398D01*
X002887Y004389D01*
X002850Y004383D01*
X002813Y004381D01*
X002776Y004383D01*
X002739Y004389D01*
X002703Y004398D01*
X002669Y004412D01*
X002636Y004429D01*
X002604Y004449D01*
X002575Y004472D01*
X002549Y004498D01*
X002526Y004527D01*
X002506Y004558D01*
X002489Y004592D01*
X002475Y004626D01*
X002466Y004662D01*
X002460Y004699D01*
X002458Y004736D01*
X006458Y004736D02*
X006460Y004773D01*
X006466Y004810D01*
X006475Y004846D01*
X006489Y004880D01*
X006506Y004913D01*
X006526Y004945D01*
X006549Y004974D01*
X006575Y005000D01*
X006604Y005023D01*
X006635Y005043D01*
X006669Y005060D01*
X006703Y005074D01*
X006739Y005083D01*
X006776Y005089D01*
X006813Y005091D01*
X006850Y005089D01*
X006887Y005083D01*
X006923Y005074D01*
X006957Y005060D01*
X006990Y005043D01*
X007022Y005023D01*
X007051Y005000D01*
X007077Y004974D01*
X007100Y004945D01*
X007120Y004914D01*
X007137Y004880D01*
X007151Y004846D01*
X007160Y004810D01*
X007166Y004773D01*
X007168Y004736D01*
X007166Y004699D01*
X007160Y004662D01*
X007151Y004626D01*
X007137Y004592D01*
X007120Y004559D01*
X007100Y004527D01*
X007077Y004498D01*
X007051Y004472D01*
X007022Y004449D01*
X006991Y004429D01*
X006957Y004412D01*
X006923Y004398D01*
X006887Y004389D01*
X006850Y004383D01*
X006813Y004381D01*
X006776Y004383D01*
X006739Y004389D01*
X006703Y004398D01*
X006669Y004412D01*
X006636Y004429D01*
X006604Y004449D01*
X006575Y004472D01*
X006549Y004498D01*
X006526Y004527D01*
X006506Y004558D01*
X006489Y004592D01*
X006475Y004626D01*
X006466Y004662D01*
X006460Y004699D01*
X006458Y004736D01*
D16*
X002313Y001248D02*
X002313Y001224D01*
D17*
X007313Y001236D03*
D18*
X003563Y003736D03*
M02*
